<?xml version="1.0" encoding="UTF-8"?>
<svg id="Layer_2" data-name="Layer 2" xmlns="http://www.w3.org/2000/svg" viewBox="0 0 1000 1000">
  <defs>
    <style>
      .cls-1 {
        fill: #344659;
      }

      .cls-1, .cls-2, .cls-3 {
        stroke-width: 0px;
      }

      .cls-2 {
        fill: #8bbcf0;
      }

      .cls-3 {
        fill: #1e2833;
      }
    </style>
  </defs>
  <g id="Layer_6" data-name="Layer 6">
    <rect class="cls-1" width="1000" height="1000"/>
    <path class="cls-3" d="M704.13,657.81l130.5-88.61s-128.42-16.08-180.09-23.08l22.16-43.79c135.33-9.29,282.48-22.53,282.48-22.53l-468.81-160.32L57.2,479.81s125.8,12.08,247.2,21.26l19.83,45.05c-88.71,12.52-168.12,23.08-168.12,23.08l125.62,83.69s156.49,58.65,208.65,59.26c53.44.62,213.75-54.34,213.75-54.34"/>
    <g>
      <polygon class="cls-2" points="348.29 519.3 449.58 561.8 461.83 521 348.29 519.3"/>
      <polygon class="cls-2" points="645.78 519.3 544.49 561.8 532.24 521 645.78 519.3"/>
      <path class="cls-2" d="M840.19,488.89l118.99-9.06-468.81-160.32s66.32,72.36,140.38,119.31c96.2,60.98,209.44,50.07,209.44,50.07Z"/>
      <path class="cls-2" d="M639.2,590.84c150.56-4.67,195.42-21.64,195.42-21.64,0,0-19.67,18.53-167.44,36.88-11.88,1.48-69.28,3.96-99.77.34-26.07-3.09-141.3-14.16-141.3-14.16-20.62.14,102.6,2.01,213.09-1.41Z"/>
    </g>
  </g>
</svg>