<?xml version="1.0" encoding="UTF-8"?>
<svg id="Layer_2" data-name="Layer 2" xmlns="http://www.w3.org/2000/svg" viewBox="0 0 901.99 392.66">
  <defs>
    <style>
      .cls-1 {
        fill: #8bbcf0;
      }

      .cls-1, .cls-2 {
        stroke-width: 0px;
      }

      .cls-2 {
        fill: #1e2833;
      }
    </style>
  </defs>
  <g id="Layer_6" data-name="Layer 6">
    <path class="cls-2" d="M646.93,338.32l130.5-88.61s-128.42-16.08-180.09-23.08l22.16-43.79c135.33-9.29,282.48-22.53,282.48-22.53L433.18,0,0,160.32s125.8,12.08,247.2,21.26l19.83,45.05c-88.71,12.52-168.12,23.08-168.12,23.08l125.62,83.69s156.49,58.65,208.65,59.26c53.44.62,213.75-54.34,213.75-54.34"/>
    <g>
      <polygon class="cls-1" points="291.1 199.8 392.39 242.3 404.63 201.5 291.1 199.8"/>
      <polygon class="cls-1" points="588.58 199.8 487.29 242.3 475.05 201.5 588.58 199.8"/>
      <path class="cls-1" d="M783,169.39l118.99-9.06L433.18,0s66.32,72.36,140.38,119.31c96.2,60.98,209.44,50.07,209.44,50.07Z"/>
      <path class="cls-1" d="M582,271.35c150.56-4.67,195.42-21.64,195.42-21.64,0,0-19.67,18.53-167.44,36.88-11.88,1.48-69.28,3.96-99.77.34-26.07-3.09-141.3-14.16-141.3-14.16-20.62.14,102.6,2.01,213.09-1.41Z"/>
    </g>
  </g>
</svg>