<?xml version="1.0" encoding="UTF-8"?>
<svg id="Layer_2" data-name="Layer 2" xmlns="http://www.w3.org/2000/svg" viewBox="0 0 1000 1000">
  <defs>
    <style>
      .cls-1 {
        fill: #6bd3ff;
      }

      .cls-1, .cls-2, .cls-3 {
        stroke-width: 0px;
      }

      .cls-2 {
        fill: #131d21;
      }

      .cls-3 {
        fill: #1a9ed6;
      }
    </style>
  </defs>
  <g id="Layer_7" data-name="Layer 7">
    <rect class="cls-3" width="1000" height="1000"/>
    <path class="cls-2" d="M704.5,658.68l130.75-88.78s-128.66-16.11-180.43-23.12l22.21-43.87c135.59-9.31,283.02-22.57,283.02-22.57l-469.7-160.62L56.33,480.34s126.04,12.1,247.68,21.3l19.87,45.14c-88.88,12.54-168.44,23.12-168.44,23.12l125.86,83.85s156.78,58.76,209.05,59.37c53.54.62,214.16-54.44,214.16-54.44"/>
    <g>
      <polygon class="cls-1" points="347.99 519.9 449.47 562.48 461.74 521.61 347.99 519.9"/>
      <polygon class="cls-1" points="646.04 519.9 544.56 562.48 532.29 521.61 646.04 519.9"/>
      <path class="cls-1" d="M840.83,489.43l119.21-9.08-469.7-160.62s66.45,72.5,140.65,119.54c96.39,61.1,209.84,50.17,209.84,50.17Z"/>
      <path class="cls-1" d="M639.45,591.58c150.85-4.67,195.79-21.68,195.79-21.68,0,0-19.71,18.56-167.76,36.95-11.9,1.48-69.41,3.96-99.96.34-26.12-3.1-141.57-14.19-141.57-14.19-20.66.14,102.79,2.01,213.49-1.42Z"/>
    </g>
  </g>
</svg>