<?xml version="1.0" encoding="UTF-8"?>
<svg id="Layer_2" data-name="Layer 2" xmlns="http://www.w3.org/2000/svg" viewBox="0 0 903.82 393.46">
  <defs>
    <style>
      .cls-1 {
        fill: #f1a64a;
      }

      .cls-1, .cls-2 {
        stroke-width: 0px;
      }

      .cls-2 {
        fill: #231f20;
      }
    </style>
  </defs>
  <g id="Layer_2-2" data-name="Layer 2">
    <path class="cls-2" d="M648.25,339.01l130.76-88.79s-128.68-16.12-180.45-23.12l22.21-43.88c135.61-9.31,283.06-22.57,283.06-22.57L434.06,0,0,160.64s126.05,12.1,247.71,21.3l19.87,45.15c-88.89,12.55-168.47,23.12-168.47,23.12l125.88,83.86s156.8,58.77,209.07,59.38c53.55.62,214.19-54.45,214.19-54.45"/>
    <polygon class="cls-1" points="291.69 200.21 393.19 242.8 405.46 201.91 291.69 200.21"/>
    <polygon class="cls-1" points="589.78 200.21 488.29 242.8 476.02 201.91 589.78 200.21"/>
    <path class="cls-1" d="M784.59,169.74l119.23-9.08L434.06,0s66.46,72.51,140.67,119.55c96.4,61.11,209.86,50.17,209.86,50.17Z"/>
    <path class="cls-1" d="M583.19,271.9c150.86-4.68,195.82-21.69,195.82-21.69,0,0-19.71,18.57-167.78,36.95-11.9,1.48-69.42,3.96-99.97.34-26.13-3.1-141.59-14.19-141.59-14.19-20.66.14,102.81,2.01,213.52-1.42Z"/>
  </g>
</svg>