<?xml version="1.0" encoding="UTF-8"?>
<svg id="Layer_2" data-name="Layer 2" xmlns="http://www.w3.org/2000/svg" viewBox="0 0 1000 1000">
  <defs>
    <style>
      .cls-1, .cls-2, .cls-3 {
        stroke-width: 0px;
      }

      .cls-1, .cls-4 {
        fill: #f17b34;
      }

      .cls-2 {
        fill: #f1a64a;
      }

      .cls-3 {
        fill: #231f20;
      }

      .cls-5 {
        fill: #bf3a27;
        letter-spacing: -.01em;
      }

      .cls-6 {
        font-family: AdGothic-Regular, AdGothic;
        font-size: 503.97px;
        font-variation-settings: 'wdth' 100;
      }
    </style>
  </defs>
  <g id="Layer_2-2" data-name="Layer 2">
    <text class="cls-6" transform="translate(100.74 531.31) scale(.9 1)"><tspan class="cls-4" x="0" y="0">mi</tspan><tspan class="cls-5" x="491.36" y="0">z</tspan><tspan class="cls-4" x="672.28" y="0">u</tspan></text>
    <path class="cls-3" d="M352.8,751.33l-8.45.11-10.76,13.97-46.87-46.25-10.36-2.36-15.48,24.19,55.74,47.89-10.26,14.18,7.12,7.26,10.96.99,9.79-9.39-30.2,71.12-60.44,70.06h460.95l27.93-62.57-45.81-147.48-22.96-70.65,96.7-65.66s-95.15-11.92-133.44-17.1l16.42-32.45c100.28-6.88,209.31-16.69,209.31-16.69l-347.38-118.79-320.98,118.79s93.21,8.95,183.17,15.75l14.69,33.38c-65.73,9.28-124.58,17.1-124.58,17.1l93.08,62.01"/>
    <polygon class="cls-2" points="400.05 559.78 475.11 591.27 484.18 561.04 400.05 559.78"/>
    <polygon class="cls-2" points="620.48 559.78 545.43 591.27 536.36 561.04 620.48 559.78"/>
    <path class="cls-2" d="M764.54,537.25l88.17-6.72-347.38-118.79s49.14,53.62,104.02,88.41c71.29,45.19,155.19,37.1,155.19,37.1Z"/>
    <path class="cls-2" d="M615.61,612.79c111.56-3.46,144.8-16.04,144.8-16.04,0,0-14.58,13.73-124.07,27.33-8.8,1.09-51.33,2.93-73.93.25-19.32-2.29-104.7-10.49-104.7-10.49-15.28.1,76.02,1.49,157.89-1.05Z"/>
    <path class="cls-2" d="M572.37,675.03c85.47-3.35,91.35-12.62,91.35-12.62l68.76,218.13s-66.91,21.3-99.32,22.04c-105.49,2.42-124.06,2.05-124.06,2.05,0,0,44.64-2.83,66.62-9.5,22.72-6.89,48.6-5.59,53.07-79.88l-3.25-129.63-53.17-10.58Z"/>
    <rect class="cls-1" width="1000" height="1000"/>
    <path class="cls-3" d="M704.53,658.7l130.76-88.79s-128.68-16.12-180.45-23.12l22.21-43.88c135.61-9.31,283.06-22.57,283.06-22.57l-469.76-160.64L56.28,480.34s126.05,12.1,247.71,21.3l19.87,45.15c-88.89,12.55-168.47,23.12-168.47,23.12l125.88,83.86s156.8,58.77,209.07,59.38c53.55.62,214.19-54.45,214.19-54.45"/>
    <polygon class="cls-2" points="347.97 519.9 449.46 562.49 461.73 521.61 347.97 519.9"/>
    <polygon class="cls-2" points="646.06 519.9 544.56 562.49 532.29 521.61 646.06 519.9"/>
    <path class="cls-2" d="M840.87,489.43l119.23-9.08-469.76-160.64s66.46,72.51,140.67,119.55c96.4,61.11,209.86,50.17,209.86,50.17Z"/>
    <path class="cls-2" d="M639.47,591.6c150.86-4.68,195.82-21.69,195.82-21.69,0,0-19.71,18.57-167.78,36.95-11.9,1.48-69.42,3.96-99.97.34-26.13-3.1-141.59-14.19-141.59-14.19-20.66.14,102.81,2.01,213.52-1.42Z"/>
  </g>
</svg>