<?xml version="1.0" encoding="UTF-8"?>
<svg id="Layer_2" data-name="Layer 2" xmlns="http://www.w3.org/2000/svg" viewBox="0 0 1000 1000">
  <defs>
    <style>
      .cls-1 {
        fill: #9f2270;
      }

      .cls-1, .cls-2, .cls-3 {
        stroke-width: 0px;
      }

      .cls-2 {
        fill: #110f25;
      }

      .cls-3 {
        fill: #ec228f;
      }
    </style>
  </defs>
  <g id="Layer_4" data-name="Layer 4">
    <rect class="cls-1" width="1000" height="1000"/>
    <path class="cls-2" d="M704.53,658.7l130.76-88.79s-128.68-16.12-180.45-23.12l22.21-43.88c135.61-9.31,283.06-22.57,283.06-22.57l-469.76-160.64L56.28,480.34s126.05,12.1,247.71,21.3l19.87,45.15c-88.89,12.55-168.47,23.12-168.47,23.12l125.88,83.86s156.8,58.77,209.07,59.38c53.55.62,214.19-54.45,214.19-54.45"/>
    <polygon class="cls-3" points="347.97 519.9 449.46 562.49 461.73 521.61 347.97 519.9"/>
    <polygon class="cls-3" points="646.06 519.9 544.56 562.49 532.29 521.61 646.06 519.9"/>
    <path class="cls-3" d="M840.87,489.43l119.23-9.08-469.76-160.64s66.46,72.51,140.67,119.55c96.4,61.11,209.86,50.17,209.86,50.17Z"/>
    <path class="cls-3" d="M639.47,591.6c150.86-4.68,195.82-21.69,195.82-21.69,0,0-19.71,18.57-167.78,36.95-11.9,1.48-69.42,3.96-99.97.34-26.13-3.1-141.59-14.19-141.59-14.19-20.66.14,102.81,2.01,213.52-1.42Z"/>
  </g>
</svg>