<?xml version="1.0" encoding="UTF-8"?>
<svg id="Layer_2" data-name="Layer 2" xmlns="http://www.w3.org/2000/svg" viewBox="0 0 1000 1000">
  <defs>
    <style>
      .cls-1 {
        font-family: AdGothic-Regular, AdGothic;
        font-size: 504.16px;
        font-variation-settings: 'wdth' 100;
      }

      .cls-2 {
        fill: #8775b5;
      }

      .cls-2, .cls-3, .cls-4, .cls-5, .cls-6 {
        stroke-width: 0px;
      }

      .cls-3 {
        fill: #211933;
      }

      .cls-4 {
        fill: #6950a1;
      }

      .cls-5 {
        fill: #f1a64a;
      }

      .cls-7 {
        fill: #f17b34;
      }

      .cls-6 {
        fill: #231f20;
      }

      .cls-8 {
        fill: #bf3a27;
        letter-spacing: -.01em;
      }
    </style>
  </defs>
  <g id="Layer_1-2" data-name="Layer 1">
    <text class="cls-1" transform="translate(100.4 530.82) scale(.9 1)"><tspan class="cls-7" x="0" y="0">mi</tspan><tspan class="cls-8" x="491.54" y="0">z</tspan><tspan class="cls-7" x="672.53" y="0">u</tspan></text>
    <path class="cls-6" d="M352.56,750.92l-8.45.11-10.76,13.98-46.88-46.26-10.36-2.36-15.48,24.2,55.76,47.91-10.27,14.19,7.13,7.26,10.96.99,9.79-9.4-30.21,71.14-60.46,70.09h461.12l27.94-62.59-45.83-147.53-22.97-70.67,96.73-65.68s-95.19-11.92-133.49-17.1l16.43-32.46c100.32-6.89,209.39-16.7,209.39-16.7l-347.51-118.84-321.1,118.84s93.25,8.95,183.24,15.76l14.7,33.4c-65.76,9.28-124.62,17.1-124.62,17.1l93.12,62.04"/>
    <polygon class="cls-5" points="399.83 559.3 474.91 590.81 483.99 560.56 399.83 559.3"/>
    <polygon class="cls-5" points="620.34 559.3 545.26 590.81 536.18 560.56 620.34 559.3"/>
    <path class="cls-5" d="M764.46,536.76l88.2-6.72-347.51-118.84s49.16,53.64,104.06,88.44c71.31,45.2,155.25,37.12,155.25,37.12Z"/>
    <path class="cls-5" d="M615.46,612.34c111.6-3.46,144.86-16.04,144.86-16.04,0,0-14.58,13.73-124.12,27.34-8.81,1.09-51.35,2.93-73.95.25-19.33-2.29-104.74-10.5-104.74-10.5-15.28.1,76.05,1.49,157.95-1.05Z"/>
    <path class="cls-5" d="M572.21,674.6c85.5-3.35,91.39-12.62,91.39-12.62l68.79,218.21s-66.93,21.31-99.36,22.05c-105.53,2.42-124.11,2.05-124.11,2.05,0,0,44.66-2.83,66.64-9.5,22.73-6.89,48.62-5.59,53.09-79.91l-3.26-129.68-53.19-10.59Z"/>
    <text class="cls-1" transform="translate(100.4 530.82) scale(.9 1)"><tspan class="cls-7" x="0" y="0">mi</tspan><tspan class="cls-8" x="491.54" y="0">z</tspan><tspan class="cls-7" x="672.53" y="0">u</tspan></text>
    <path class="cls-6" d="M352.56,750.92l-8.45.11-10.76,13.98-46.88-46.26-10.36-2.36-15.48,24.2,55.76,47.91-10.27,14.19,7.13,7.26,10.96.99,9.79-9.4-30.21,71.14-60.46,70.09h461.12l27.94-62.59-45.83-147.53-22.97-70.67,96.73-65.68s-95.19-11.92-133.49-17.1l16.43-32.46c100.32-6.89,209.39-16.7,209.39-16.7l-347.51-118.84-321.1,118.84s93.25,8.95,183.24,15.76l14.7,33.4c-65.76,9.28-124.62,17.1-124.62,17.1l93.12,62.04"/>
    <polygon class="cls-5" points="399.83 559.3 474.91 590.81 483.99 560.56 399.83 559.3"/>
    <polygon class="cls-5" points="620.34 559.3 545.26 590.81 536.18 560.56 620.34 559.3"/>
    <path class="cls-5" d="M764.46,536.76l88.2-6.72-347.51-118.84s49.16,53.64,104.06,88.44c71.31,45.2,155.25,37.12,155.25,37.12Z"/>
    <path class="cls-5" d="M615.46,612.34c111.6-3.46,144.86-16.04,144.86-16.04,0,0-14.58,13.73-124.12,27.34-8.81,1.09-51.35,2.93-73.95.25-19.33-2.29-104.74-10.5-104.74-10.5-15.28.1,76.05,1.49,157.95-1.05Z"/>
    <path class="cls-5" d="M572.21,674.6c85.5-3.35,91.39-12.62,91.39-12.62l68.79,218.21s-66.93,21.31-99.36,22.05c-105.53,2.42-124.11,2.05-124.11,2.05,0,0,44.66-2.83,66.64-9.5,22.73-6.89,48.62-5.59,53.09-79.91l-3.26-129.68-53.19-10.59Z"/>
    <rect class="cls-4" width="1000" height="1000"/>
    <path class="cls-3" d="M704.42,658.26l130.81-88.83s-128.73-16.12-180.52-23.13l22.22-43.89c135.66-9.31,283.16-22.58,283.16-22.58l-469.94-160.7L55.92,479.83s126.1,12.11,247.8,21.31l19.88,45.16c-88.93,12.55-168.53,23.13-168.53,23.13l125.92,83.89s156.86,58.79,209.15,59.4c53.57.62,214.27-54.47,214.27-54.47"/>
    <polygon class="cls-2" points="347.72 519.41 449.26 562.02 461.53 521.12 347.72 519.41"/>
    <polygon class="cls-2" points="645.93 519.41 544.39 562.02 532.12 521.12 645.93 519.41"/>
    <path class="cls-2" d="M840.81,488.93l119.27-9.09-469.94-160.7s66.48,72.54,140.72,119.6c96.44,61.13,209.94,50.19,209.94,50.19Z"/>
    <path class="cls-2" d="M639.33,591.13c150.92-4.68,195.89-21.7,195.89-21.7,0,0-19.72,18.57-167.84,36.97-11.91,1.48-69.44,3.97-100.01.34-26.14-3.1-141.64-14.2-141.64-14.2-20.67.14,102.85,2.02,213.6-1.42Z"/>
  </g>
</svg>