<?xml version="1.0" encoding="UTF-8"?>
<svg id="Layer_2" data-name="Layer 2" xmlns="http://www.w3.org/2000/svg" viewBox="0 0 904.16 393.61">
  <defs>
    <style>
      .cls-1 {
        fill: #8775b5;
      }

      .cls-1, .cls-2 {
        stroke-width: 0px;
      }

      .cls-2 {
        fill: #211933;
      }
    </style>
  </defs>
  <g id="Layer_1-2" data-name="Layer 1">
    <path class="cls-2" d="M648.49,339.13l130.81-88.83s-128.73-16.12-180.52-23.13l22.22-43.89c135.66-9.31,283.16-22.58,283.16-22.58L434.23,0,0,160.7s126.1,12.11,247.8,21.31l19.88,45.16c-88.93,12.55-168.53,23.13-168.53,23.13l125.92,83.89s156.86,58.79,209.15,59.4c53.57.62,214.27-54.47,214.27-54.47"/>
    <polygon class="cls-1" points="291.8 200.29 393.34 242.89 405.61 201.99 291.8 200.29"/>
    <polygon class="cls-1" points="590 200.29 488.47 242.89 476.2 201.99 590 200.29"/>
    <path class="cls-1" d="M784.89,169.8l119.27-9.09L434.23,0s66.48,72.54,140.72,119.6c96.44,61.13,209.94,50.19,209.94,50.19Z"/>
    <path class="cls-1" d="M583.41,272c150.92-4.68,195.89-21.7,195.89-21.7,0,0-19.72,18.57-167.84,36.97-11.91,1.48-69.44,3.97-100.01.34-26.14-3.1-141.64-14.2-141.64-14.2-20.67.14,102.85,2.02,213.6-1.42Z"/>
  </g>
</svg>