<?xml version="1.0" encoding="UTF-8"?>
<svg id="Layer_2" data-name="Layer 2" xmlns="http://www.w3.org/2000/svg" viewBox="0 0 1000 1000">
  <defs>
    <style>
      .cls-1 {
        fill: #161f26;
      }

      .cls-1, .cls-2, .cls-3 {
        stroke-width: 0px;
      }

      .cls-2 {
        fill: #64c8d5;
      }

      .cls-3 {
        fill: #007473;
      }
    </style>
  </defs>
  <g id="Layer_3" data-name="Layer 3">
    <rect class="cls-3" width="1000" height="1000"/>
    <path class="cls-1" d="M702.92,657.45l129.73-88.09s-127.66-15.99-179.03-22.94l22.03-43.53c134.54-9.24,280.83-22.39,280.83-22.39l-466.06-159.38L59.77,480.49s125.06,12.01,245.76,21.13l19.71,44.79c-88.19,12.45-167.14,22.94-167.14,22.94l124.88,83.2s155.57,58.31,207.43,58.91c53.13.62,212.5-54.02,212.5-54.02"/>
    <polygon class="cls-2" points="349.17 519.75 449.86 562 462.04 521.44 349.17 519.75"/>
    <polygon class="cls-2" points="644.91 519.75 544.21 562 532.04 521.44 644.91 519.75"/>
    <path class="cls-2" d="M838.19,489.51l118.29-9.01-466.06-159.38s65.93,71.94,139.56,118.61c95.64,60.62,208.21,49.78,208.21,49.78Z"/>
    <path class="cls-2" d="M638.37,590.87c149.68-4.64,194.28-21.52,194.28-21.52,0,0-19.56,18.42-166.46,36.66-11.81,1.47-68.87,3.93-99.18.34-25.92-3.07-140.47-14.08-140.47-14.08-20.5.14,102,2,211.84-1.41Z"/>
  </g>
</svg>