<?xml version="1.0" encoding="UTF-8"?>
<svg id="Layer_2" data-name="Layer 2" xmlns="http://www.w3.org/2000/svg" viewBox="0 0 896.71 390.36">
  <defs>
    <style>
      .cls-1 {
        fill: #161f26;
      }

      .cls-1, .cls-2 {
        stroke-width: 0px;
      }

      .cls-2 {
        fill: #64c8d5;
      }
    </style>
  </defs>
  <g id="Layer_3" data-name="Layer 3">
    <path class="cls-1" d="M643.15,336.34l129.73-88.09s-127.66-15.99-179.03-22.94l22.03-43.53c134.54-9.24,280.83-22.39,280.83-22.39L430.64,0,0,159.38s125.06,12.01,245.76,21.13l19.71,44.79c-88.19,12.45-167.14,22.94-167.14,22.94l124.88,83.2s155.57,58.31,207.43,58.91c53.13.62,212.5-54.02,212.5-54.02"/>
    <polygon class="cls-2" points="289.39 198.63 390.09 240.89 402.26 200.32 289.39 198.63"/>
    <polygon class="cls-2" points="585.14 198.63 484.44 240.89 472.27 200.32 585.14 198.63"/>
    <path class="cls-2" d="M778.42,168.4l118.29-9.01L430.64,0s65.93,71.94,139.56,118.61c95.64,60.62,208.21,49.78,208.21,49.78Z"/>
    <path class="cls-2" d="M578.6,269.76c149.68-4.64,194.28-21.52,194.28-21.52,0,0-19.56,18.42-166.46,36.66-11.81,1.47-68.87,3.93-99.18.34-25.92-3.07-140.47-14.08-140.47-14.08-20.5.14,102,2,211.84-1.41Z"/>
  </g>
</svg>